<?xml version="1.0" encoding="UTF-8" standalone="no"?>
<!-- Created with Inkscape (http://www.inkscape.org/) -->

<svg
   width="1024"
   height="1024"
   viewBox="0 0 270.93333 270.93333"
   version="1.1"
   id="svg1"
   xmlns="http://www.w3.org/2000/svg"
   xmlns:svg="http://www.w3.org/2000/svg">
  <defs
     id="defs1" />
  <g
     id="layer1"
     transform="matrix(2.4820101,0,0,2.4820101,-138.63824,-293.91424)">
    <path
       style="fill:#2060c9;fill-opacity:1;stroke-width:0.264583"
       d="m 89.710937,154.86133 c -9.217385,-0.10904 -18.392785,1.07456 -23.009765,5.05664 -4.61698,3.98208 -4.675644,10.76297 -3.708985,16.4043 0.96666,5.64132 2.959212,10.14153 10.080079,13.08007 7.120867,2.93855 19.370094,4.3148 25.910156,1.86328 6.540058,-2.45151 7.320958,-8.35365 9.728518,-12.41601 0.58705,-0.99056 1.23751,-1.81798 1.91406,-2.51172 0.67655,0.69374 1.32896,1.52116 1.91602,2.51172 2.40755,4.06236 3.1865,9.9645 9.72656,12.41601 6.54006,2.45152 18.79124,1.07527 25.91211,-1.86328 7.12086,-2.93854 9.11146,-7.43875 10.07812,-13.08007 0.96666,-5.64133 0.90995,-12.42222 -3.70703,-16.4043 -4.61698,-3.98208 -13.79433,-5.16568 -23.01172,-5.05664 -7.64337,0.0904 -15.30723,1.06877 -20.91406,2.54492 -5.60683,-1.47615 -13.270692,-2.4545 -20.914063,-2.54492 z"
       id="path2" />
    <path
       style="fill:#ffffff;fill-opacity:1;stroke-width:0.264583"
       d="m 86.935547,158.33398 c -3.672745,0.0408 -7.630232,0.61236 -11.160156,1.77539 -3.529925,1.16304 -6.632613,2.91862 -8.326172,4.7754 -1.693559,1.85677 -1.979178,3.81538 -1.917969,6.30468 0.06121,2.4893 0.470198,5.50849 1.714844,8.14063 1.244645,2.63214 3.325563,4.87655 6.855468,6.52929 3.529906,1.65275 8.508711,2.71397 12.916016,2.73438 4.407305,0.0204 8.243476,-0.99961 10.998047,-3.61133 2.754575,-2.61171 4.427225,-6.81565 8.548825,-11.08008 1.20361,-1.24531 2.61563,-2.49546 4.01172,-3.69531 1.39609,1.19985 2.80811,2.45 4.01172,3.69531 4.1216,4.26443 5.79621,8.46837 8.55078,11.08008 2.75457,2.61172 6.58879,3.63174 10.9961,3.61133 4.4073,-0.0204 9.38611,-1.08163 12.91601,-2.73438 3.52991,-1.65274 5.61082,-3.89715 6.85547,-6.52929 1.24465,-2.63214 1.65364,-5.65133 1.71484,-8.14063 0.0612,-2.4893 -0.22441,-4.44791 -1.91797,-6.30468 -1.69355,-1.85678 -4.79429,-3.61236 -8.32421,-4.7754 -3.52993,-1.16303 -7.48937,-1.73458 -11.16211,-1.77539 -3.67275,-0.0408 -7.06011,0.44909 -9.85547,1 -2.79537,0.55092 -4.99893,1.16357 -9.40625,1.44922 -1.33864,0.0868 -2.88014,0.14339 -4.37891,0.24024 -1.49876,-0.0968 -3.04027,-0.15347 -4.3789,-0.24024 -4.40732,-0.28565 -6.610889,-0.8983 -9.406254,-1.44922 -2.795366,-0.55091 -6.182724,-1.0408 -9.855469,-1 z"
       id="path4" />
  </g>
</svg>
